<?xml version="1.0" standalone="no"?>
<!DOCTYPE svg PUBLIC "-//W3C//DTD SVG 20010904//EN"
 "http://www.w3.org/TR/2001/REC-SVG-20010904/DTD/svg10.dtd">
<svg version="1.0" xmlns="http://www.w3.org/2000/svg"
 width="930.000000pt" height="930.000000pt" viewBox="0 0 930.000000 930.000000"
 preserveAspectRatio="xMidYMid meet">
<metadata>
Created by potrace 1.14, written by Peter Selinger 2001-2017
</metadata>
<g transform="translate(0.000000,930.000000) scale(0.100000,-0.100000)"
fill="#000000" stroke="none">
<path d="M6805 8599 c-195 -15 -331 -31 -445 -50 -63 -11 -137 -24 -165 -29
-136 -23 -261 -52 -363 -84 -63 -20 -120 -36 -128 -36 -8 0 -53 -13 -101 -29
-331 -109 -550 -204 -689 -299 -50 -34 -122 -75 -160 -92 -84 -38 -139 -72
-266 -167 -54 -39 -139 -96 -190 -126 -51 -31 -124 -83 -163 -116 -38 -34
-120 -103 -181 -155 -61 -51 -144 -131 -185 -176 -41 -46 -97 -106 -126 -134
-56 -56 -183 -205 -283 -334 -36 -46 -89 -113 -118 -150 -104 -133 -130 -168
-179 -248 -28 -45 -62 -107 -77 -139 -20 -45 -30 -56 -43 -52 -118 39 -203 58
-248 53 -40 -5 -53 -2 -71 15 -12 11 -41 22 -71 26 -91 10 -158 -29 -170 -100
-4 -29 0 -44 26 -82 17 -25 31 -49 31 -53 -1 -4 -16 -25 -35 -46 l-35 -39 -53
12 c-63 14 -153 -4 -169 -33 -23 -41 -26 -73 -9 -98 20 -30 101 -108 113 -108
11 0 10 -17 -1 -25 -18 -10 -72 -120 -82 -164 -6 -29 -6 -62 1 -100 8 -46 18
-64 54 -100 37 -37 51 -44 93 -48 42 -4 59 0 111 27 49 25 65 29 81 20 46 -24
46 -51 -1 -190 -79 -233 -144 -455 -207 -707 -40 -157 -128 -563 -136 -628 -4
-27 -13 -86 -21 -130 -24 -137 -44 -421 -44 -645 0 -118 -4 -221 -8 -228 -7
-11 -183 -37 -437 -65 -70 -7 -78 0 -103 104 -12 52 -33 144 -47 204 -15 61
-35 153 -46 205 -11 52 -28 127 -38 165 -47 174 -63 262 -52 284 7 12 13 21
15 21 37 0 229 25 281 37 150 33 160 54 117 242 -17 75 -34 150 -37 168 -9 45
-39 79 -81 93 -28 10 -47 9 -97 -4 -34 -8 -127 -29 -206 -46 -127 -28 -145
-30 -158 -17 -21 21 -67 221 -103 449 -32 204 -43 235 -93 252 -26 9 -104 1
-285 -29 -94 -16 -115 -26 -138 -60 -21 -33 -17 -62 56 -355 85 -339 88 -359
67 -375 -10 -7 -66 -23 -125 -35 -191 -40 -295 -70 -319 -92 -27 -26 -30 -69
-9 -161 8 -34 22 -98 32 -142 28 -132 53 -162 125 -152 20 3 110 29 199 58
145 47 163 51 176 37 9 -9 36 -98 60 -199 24 -101 50 -206 58 -234 8 -27 18
-68 22 -90 3 -22 23 -107 44 -190 62 -245 74 -315 58 -331 -7 -7 -93 -29 -190
-48 -401 -80 -600 -157 -724 -281 -77 -77 -97 -122 -102 -232 -4 -80 -1 -98
18 -137 12 -25 40 -62 62 -81 96 -81 308 -157 523 -184 50 -7 113 -17 142 -22
l52 -10 -16 -52 c-20 -69 -12 -147 21 -198 77 -115 351 -206 721 -239 72 -6
288 -12 480 -13 376 -2 505 9 653 55 62 19 81 20 260 14 107 -4 200 -10 209
-13 10 -4 12 -13 8 -27 -14 -43 -17 -164 -5 -202 17 -49 89 -127 154 -163 93
-53 310 -116 503 -145 164 -26 795 -72 983 -72 25 0 142 -4 260 -8 294 -11
935 27 1160 69 239 45 388 129 439 248 11 26 26 49 33 52 7 2 214 9 459 15
276 6 500 16 585 26 275 31 481 82 621 152 126 64 175 134 174 247 0 70 -18
115 -77 196 -19 26 -34 49 -34 52 0 11 65 27 109 27 64 0 297 36 394 61 169
43 310 122 360 202 24 40 27 53 27 134 0 98 -16 142 -82 226 -58 73 -233 172
-383 216 -84 24 -327 73 -483 97 -63 9 -118 22 -123 28 -5 6 -19 26 -32 45
-37 57 -70 75 -146 79 -55 3 -76 0 -110 -18 -47 -23 -47 -23 -346 15 -60 8
-168 19 -240 25 -183 15 -172 11 -206 86 -17 37 -29 78 -27 92 2 19 28 47 93
101 152 128 421 406 603 624 88 106 301 396 372 507 293 460 510 928 649 1395
11 39 31 106 45 150 58 191 146 579 182 805 8 52 19 114 24 136 12 54 57 408
70 554 14 157 13 265 -5 465 -16 181 -33 285 -67 403 -19 65 -27 78 -80 128
-119 110 -323 226 -523 297 -212 76 -537 144 -795 166 -133 12 -728 12 -875 0z
m661 -178 c131 -75 293 -185 358 -242 l41 -36 -60 -7 c-33 -3 -89 -8 -125 -11
-114 -11 -293 -34 -343 -46 -40 -9 -51 -9 -65 4 -34 30 -230 155 -316 202 -49
26 -152 71 -228 100 -76 29 -141 54 -143 57 -8 7 120 28 225 37 52 5 194 9
316 10 l220 1 120 -69z m219 48 l40 -1 -32 -9 c-24 -7 -41 -5 -65 6 -26 12
-27 14 -8 10 14 -2 43 -5 65 -6z m222 -35 c-3 -3 -12 -4 -19 -1 -8 3 -5 6 6 6
11 1 17 -2 13 -5z m-1536 -40 c30 -9 58 -19 62 -24 8 -7 -54 -21 -248 -56 -44
-8 -93 -19 -110 -25 -16 -5 -86 -23 -155 -39 -69 -15 -190 -51 -270 -79 -80
-28 -190 -65 -245 -82 -91 -28 -195 -80 -195 -98 0 -5 -17 -13 -39 -19 -21 -7
-44 -19 -51 -27 -7 -8 -18 -15 -26 -15 -29 0 -202 -90 -236 -123 -20 -20 -56
-46 -80 -58 -24 -12 -45 -25 -48 -28 -3 -4 -22 -17 -42 -30 -21 -12 -38 -29
-38 -38 0 -9 -6 -13 -15 -9 -8 3 -15 2 -15 -2 0 -5 -17 -18 -38 -30 -21 -12
-51 -34 -67 -49 -16 -15 -25 -21 -20 -13 4 8 -2 6 -13 -5 -35 -33 -52 -46 -52
-39 0 3 -7 1 -15 -6 -8 -6 -13 -15 -12 -18 1 -4 -1 -8 -5 -9 -5 -2 -17 -11
-28 -20 -11 -10 -29 -26 -40 -36 -12 -10 -18 -22 -15 -27 3 -5 0 -7 -8 -5 -7
3 -35 -11 -63 -31 -78 -59 -103 -85 -97 -103 4 -13 3 -13 -5 -2 -11 16 -36 5
-26 -11 4 -7 2 -8 -4 -4 -14 8 -35 -30 -26 -47 4 -6 4 -9 -1 -5 -8 7 -81 -26
-87 -39 -1 -5 -34 -36 -72 -71 -37 -35 -87 -85 -109 -110 -22 -26 -76 -86
-120 -134 -165 -181 -422 -537 -500 -693 -11 -22 -24 -43 -30 -47 -7 -4 -6
-12 4 -24 10 -13 2 -11 -31 8 -25 14 -49 32 -53 40 -19 29 284 470 503 733
208 251 583 597 891 822 209 154 535 338 794 449 321 137 510 195 865 264 176
34 164 34 231 14z m185 -180 c49 -14 110 -37 137 -51 89 -49 164 -155 183
-257 6 -36 5 -39 -15 -33 -16 4 -22 0 -27 -19 -9 -34 -23 -20 -86 85 -73 120
-118 162 -241 221 -57 28 -109 50 -115 50 -16 0 -15 17 1 23 28 12 79 6 163
-19z m-231 -31 c83 -26 223 -103 269 -147 57 -56 97 -172 66 -191 -5 -3 -10
-1 -10 5 0 8 -6 8 -21 0 -16 -9 -18 -14 -8 -26 7 -9 8 -14 1 -14 -6 0 -23 21
-39 46 -68 111 -131 157 -302 220 -117 43 -161 67 -161 90 0 45 92 53 205 17z
m-347 -49 c57 -16 182 -74 247 -116 82 -52 145 -142 145 -208 0 -30 -14 -41
-23 -17 -3 6 -6 0 -6 -15 -1 -16 -3 -28 -6 -28 -18 0 -56 37 -84 80 -34 53
-83 96 -146 128 -64 32 -165 62 -210 62 -37 0 -48 -5 -79 -40 l-36 -40 -50 25
-50 25 15 38 c18 45 82 105 127 119 37 12 77 9 156 -13z m1082 -49 c11 -13 8
-15 -14 -15 -23 0 -25 2 -14 15 16 18 13 18 28 0z m1565 1 l130 -13 -317 -4
c-304 -4 -348 -1 -348 25 0 11 400 5 535 -8z m-572 -125 c117 -122 258 -297
339 -421 52 -79 108 -184 108 -201 -1 -24 -292 -399 -310 -399 -3 0 -16 24
-30 52 -167 345 -498 770 -779 1001 -23 19 -31 31 -23 36 20 12 406 57 518 60
l52 1 125 -129z m-2550 38 c91 -30 375 -171 429 -213 80 -61 126 -166 79 -181
-28 -9 -62 9 -106 54 -32 33 -63 51 -165 90 -69 26 -150 56 -180 66 -30 9 -79
26 -109 36 -63 21 -75 17 -68 -21 4 -19 2 -27 -9 -27 -8 0 -14 4 -14 7 0 4
-10 8 -22 8 -33 0 -78 19 -84 36 -7 19 28 85 63 117 60 56 90 60 186 28z
m1584 -55 c0 -6 -9 -9 -19 -6 -27 7 -29 17 -4 17 13 0 23 -5 23 -11z m-1077
-16 l35 -22 -42 -9 c-46 -10 -58 -35 -23 -44 11 -3 20 -12 20 -19 0 -19 -6
-18 -43 10 -18 13 -52 34 -76 46 l-45 22 35 19 c46 25 97 24 139 -3z m1341
-75 c13 -16 12 -17 -3 -4 -10 7 -18 15 -18 17 0 8 8 3 21 -13z m44 -33 c10
-11 16 -20 13 -20 -3 0 -13 9 -23 20 -10 11 -16 20 -13 20 3 0 13 -9 23 -20z
m-2186 -31 c347 -91 464 -144 516 -233 15 -25 29 -63 32 -84 4 -31 0 -41 -21
-61 -22 -21 -26 -22 -26 -7 0 9 -4 15 -9 12 -5 -3 -29 18 -54 47 -37 44 -55
56 -113 75 -161 54 -237 75 -381 106 l-152 32 -6 -28 c-6 -25 -11 -28 -45 -28
-49 0 -64 18 -55 69 13 75 78 131 154 131 24 0 96 -14 160 -31z m467 -89 c25
-12 42 -25 39 -30 -6 -9 -105 34 -105 45 0 10 22 5 66 -15z m540 -37 c-7 -7
-26 7 -26 19 0 6 6 6 15 -2 9 -7 13 -15 11 -17z m-49 -25 c-3 -8 -6 -5 -6 6
-1 11 2 17 5 13 3 -3 4 -12 1 -19z m-1492 2 c3 -5 1 -10 -4 -10 -6 0 -11 5
-11 10 0 6 2 10 4 10 3 0 8 -4 11 -10z m1665 -39 c3 -2 -1 -6 -8 -8 -6 -3 -10
-8 -7 -13 3 -4 -4 -6 -15 -3 -11 3 -20 1 -20 -5 0 -5 -8 -13 -17 -16 -14 -6
-14 -3 3 15 16 19 16 21 2 16 -10 -3 -22 1 -30 11 -11 15 -11 16 3 4 14 -10
18 -10 23 3 3 9 0 15 -8 15 -7 0 -19 7 -26 14 -8 11 4 8 42 -7 29 -12 55 -23
58 -26z m-186 4 c-3 -7 -1 -22 4 -32 7 -13 6 -24 -3 -36 -11 -15 -13 -16 -19
-2 -3 8 -1 15 3 15 5 0 7 19 4 42 -4 29 -3 39 5 34 6 -4 9 -13 6 -21z m86 -25
c0 -5 -5 -10 -11 -10 -5 0 -7 5 -4 10 3 6 8 10 11 10 2 0 4 -4 4 -10z m553
-17 c-7 -2 -19 -2 -25 0 -7 3 -2 5 12 5 14 0 19 -2 13 -5z m-1556 -9 c-3 -3
-12 -4 -19 -1 -8 3 -5 6 6 6 11 1 17 -2 13 -5z m1446 -1 c-13 -2 -35 -2 -50 0
-16 2 -5 4 22 4 28 0 40 -2 28 -4z m-126 -9 c-3 -3 -12 -4 -19 -1 -8 3 -5 6 6
6 11 1 17 -2 13 -5z m-1162 -36 c28 -12 51 -23 53 -24 1 0 0 -8 -3 -16 -4 -10
-15 -13 -32 -10 -21 4 -25 2 -20 -12 5 -13 0 -16 -31 -16 -28 0 -33 3 -22 10
11 7 7 9 -15 5 -37 -7 -46 -1 -73 52 l-21 43 57 -5 c31 -3 80 -15 107 -27z
m825 6 c14 1 31 5 38 9 7 5 12 4 12 -2 0 -6 -6 -11 -12 -11 -9 0 -8 -4 2 -11
12 -9 11 -10 -5 -4 -48 16 -50 17 -31 1 18 -15 17 -16 -15 -43 -18 -15 -35
-28 -38 -28 -3 0 -12 -4 -18 -8 -8 -5 -13 -4 -13 2 0 6 5 12 10 12 6 1 16 2
22 3 7 0 13 10 13 21 0 14 6 19 20 17 17 -2 18 -1 5 10 -8 7 -22 22 -30 33
-13 18 -13 19 0 9 8 -6 26 -10 40 -10z m195 -24 c-18 -6 -18 -7 0 -13 10 -4
15 -10 12 -14 -4 -3 -13 0 -21 6 -8 7 -20 10 -27 6 -8 -6 -8 -9 1 -15 8 -5 2
-10 -19 -15 -18 -4 -40 -19 -52 -36 -13 -19 -27 -28 -36 -25 -11 5 -13 2 -9
-9 3 -9 2 -14 -3 -11 -11 7 -44 -30 -37 -42 3 -6 -2 -8 -12 -5 -12 3 -33 -8
-58 -32 -21 -21 -51 -42 -66 -47 -19 -7 -25 -15 -23 -29 3 -16 0 -18 -23 -13
-37 9 -40 14 -8 14 15 0 25 4 22 9 -3 4 16 22 42 39 26 17 82 63 125 102 42
39 77 68 77 63 0 -4 5 0 11 10 14 24 101 77 113 70 5 -4 1 -9 -9 -13z m-345
-30 c20 -6 21 -8 5 -8 -11 0 -29 3 -40 8 -25 11 1 11 35 0z m53 -33 c-2 -4
-16 -5 -30 -3 -38 7 -38 14 1 12 19 0 32 -4 29 -9z m307 3 c0 -5 -4 -10 -9
-10 -6 0 -13 5 -16 10 -3 6 1 10 9 10 9 0 16 -4 16 -10z m-540 -64 c-6 -19
-23 -42 -38 -51 l-27 -17 28 26 c17 17 27 37 27 55 0 15 3 31 7 35 13 13 15
-13 3 -48z m234 29 c-7 -16 -24 -21 -24 -6 0 8 7 13 27 20 1 1 0 -6 -3 -14z
m-60 -31 c16 -6 12 -24 -5 -24 -6 0 -7 5 -3 11 5 9 -1 10 -20 5 -18 -4 -25 -3
-21 4 7 11 26 13 49 4z m329 -1 c-7 -2 -21 -2 -30 0 -10 3 -4 5 12 5 17 0 24
-2 18 -5z m-1699 -62 c4 -5 -3 -7 -14 -4 -23 6 -26 13 -6 13 8 0 17 -4 20 -9z
m1266 -1 c0 -5 -2 -10 -4 -10 -3 0 -8 5 -11 10 -3 6 -1 10 4 10 6 0 11 -4 11
-10z m2607 -78 c119 -245 151 -325 214 -532 48 -161 108 -450 98 -474 -4 -12
-18 -66 -29 -121 -45 -218 -148 -600 -183 -684 l-15 -34 -7 54 c-16 129 -58
353 -73 389 -3 8 -6 20 -7 25 -1 6 -7 30 -14 55 -6 25 -32 120 -57 212 -52
193 -150 488 -193 580 -16 34 -45 98 -65 141 l-36 78 105 125 c57 68 128 158
157 199 29 41 55 74 58 74 3 0 24 -39 47 -87z m-3795 59 l43 -9 -36 -1 c-19
-1 -44 6 -55 15 -10 8 -13 13 -7 9 7 -3 32 -10 55 -14z m1228 15 c0 -3 -4 -8
-10 -11 -5 -3 -10 -1 -10 4 0 6 5 11 10 11 6 0 10 -2 10 -4z m-1810 -10 c0 -2
-8 -10 -17 -17 -16 -13 -17 -12 -4 4 13 16 21 21 21 13z m1990 0 c0 -2 -8 -10
-17 -17 -16 -13 -17 -12 -4 4 13 16 21 21 21 13z m-246 -22 c3 -8 2 -12 -4 -9
-6 3 -10 1 -10 -5 0 -6 -5 -8 -10 -5 -8 5 -7 11 1 21 14 18 16 17 23 -2z
m-1184 -4 c8 -5 11 -10 5 -10 -5 0 -17 5 -25 10 -8 5 -10 10 -5 10 6 0 17 -5
25 -10z m107 4 c-3 -3 -12 -4 -19 -1 -8 3 -5 6 6 6 11 1 17 -2 13 -5z m1030
-8 c-3 -8 -1 -17 6 -20 9 -3 9 -5 0 -5 -15 -1 -26 16 -18 29 9 15 18 12 12 -4z
m-939 -3 c-10 -2 -28 -2 -40 0 -13 2 -5 4 17 4 22 1 32 -1 23 -4z m1183 -27
c-16 -19 -51 -28 -44 -10 2 7 11 10 18 8 7 -3 16 -1 20 5 3 6 9 11 12 11 3 0
0 -6 -6 -14z m-945 -54 c-14 -14 -14 -12 -3 24 10 33 13 35 15 15 2 -13 -3
-31 -12 -39z m641 52 c-3 -3 -12 -4 -19 -1 -8 3 -5 6 6 6 11 1 17 -2 13 -5z
m338 -13 c-3 -6 -11 -11 -17 -11 -6 0 -6 6 2 15 14 17 26 13 15 -4z m-445 -7
c0 -9 -7 -14 -17 -12 -10 1 -24 -1 -31 -6 -7 -4 -15 -6 -18 -3 -4 3 52 36 64
37 1 0 2 -7 2 -16z m50 12 c0 -2 -7 -6 -15 -10 -8 -3 -15 -1 -15 4 0 6 7 10
15 10 8 0 15 -2 15 -4z m-875 -44 c-3 -3 -11 0 -18 7 -9 10 -8 11 6 5 10 -3
15 -9 12 -12z m1100 7 c19 -9 18 -9 -2 -5 -13 2 -26 0 -29 -5 -3 -5 -13 -9
-22 -9 -13 0 -13 2 4 15 22 17 22 17 49 4z m350 2 c3 -5 2 -12 -3 -15 -5 -3
-9 1 -9 9 0 17 3 19 12 6z m74 -7 c10 -9 -35 -3 -49 6 -11 8 -7 9 15 4 17 -4
32 -8 34 -10z m28 1 c0 -8 -4 -12 -9 -9 -5 3 -6 10 -3 15 9 13 12 11 12 -6z
m553 -12 c0 -21 -28 -53 -47 -53 -7 0 -19 12 -25 26 -14 30 0 44 45 44 19 0
27 -5 27 -17z m-674 -21 c-4 -3 -14 2 -24 12 -16 18 -16 18 6 6 13 -6 21 -14
18 -18z m-1385 1 c13 -17 13 -17 -6 -3 -11 8 -22 16 -24 17 -2 2 0 3 6 3 6 0
17 -8 24 -17z m947 10 c-10 -2 -18 -8 -18 -12 0 -4 -10 -7 -21 -8 -21 -2 -21
-1 -3 12 11 8 28 14 39 14 17 -1 17 -2 3 -6z m29 -40 c-3 -10 -5 -2 -5 17 0
19 2 27 5 18 2 -10 2 -26 0 -35z m568 29 c-3 -3 -11 0 -18 7 -9 10 -8 11 6 5
10 -3 15 -9 12 -12z m626 8 c24 -14 24 -32 -1 -55 -26 -23 -50 -13 -50 23 0
43 14 51 51 32z m-1094 -6 c-3 -3 -12 -4 -19 -1 -8 3 -5 6 6 6 11 1 17 -2 13
-5z m-237 -14 c0 -5 -6 -10 -12 -11 -7 0 -25 -2 -40 -3 -39 -2 -35 12 5 17 17
2 35 5 40 5 4 1 7 -2 7 -8z m520 0 c0 -5 -2 -10 -4 -10 -3 0 -8 5 -11 10 -3 6
-1 10 4 10 6 0 11 -4 11 -10z m-1675 -27 c162 -37 287 -138 362 -293 57 -117
74 -215 63 -345 -10 -116 -34 -193 -87 -289 -82 -148 -255 -290 -416 -342
-161 -51 -365 -43 -500 22 -202 95 -328 344 -296 582 13 90 64 231 118 322
158 266 472 408 756 343z m1270 7 c3 -5 1 -10 -4 -10 -6 0 -11 5 -11 10 0 6 2
10 4 10 3 0 8 -4 11 -10z m389 -12 c-3 -5 -10 -22 -14 -36 -8 -23 -9 -21 -8
14 1 30 6 40 15 37 7 -3 10 -9 7 -15z m-1270 -26 c19 -27 19 -27 -12 2 -35 32
-38 38 -19 30 6 -3 21 -17 31 -32z m611 16 c-14 -13 -27 -32 -28 -44 -1 -14
-6 -20 -18 -17 -19 5 -79 -23 -79 -37 0 -5 4 -12 10 -15 6 -4 5 -11 -2 -19
-16 -17 -38 -16 -31 1 3 7 10 10 16 6 7 -4 8 0 4 11 -4 11 1 29 13 47 17 23
27 28 51 25 25 -3 29 0 27 16 -2 11 6 24 22 32 38 21 44 18 15 -6z m373 -19
c-8 -6 -18 -3 -26 9 -11 15 -10 18 10 23 26 6 39 -18 16 -32z m-870 6 c-6 -14
-13 -23 -15 -21 -5 5 15 46 22 46 3 0 -1 -11 -7 -25z m542 -25 c0 -5 -5 -10
-11 -10 -5 0 -7 5 -4 10 3 6 8 10 11 10 2 0 4 -4 4 -10z m230 -41 c-37 -10
-217 -2 -224 9 -2 4 55 5 127 3 102 -3 124 -6 97 -12z m-140 -59 c0 -5 -19 -9
-42 -9 l-43 2 40 7 c22 4 41 8 43 9 1 0 2 -3 2 -9z m-160 -14 c0 -2 -18 -6
-40 -8 -22 -2 -40 0 -40 4 0 5 18 8 40 8 22 0 40 -2 40 -4z m680 -43 c-9 -15
-10 -14 -4 6 4 16 3 21 -5 17 -7 -5 -8 -1 -4 10 5 15 7 15 15 0 6 -10 5 -23
-2 -33z m749 -508 c0 -454 -12 -672 -39 -699 -9 -8 -10 38 -6 184 3 107 8 294
11 415 18 757 34 804 34 100z m-1568 478 c-8 -15 -10 -15 -11 -2 0 17 10 32
18 25 2 -3 -1 -13 -7 -23z m114 -3 c4 -6 -5 -10 -19 -10 -14 0 -26 5 -26 10 0
6 9 10 19 10 11 0 23 -4 26 -10z m15 -80 c0 -5 -16 -10 -35 -10 -19 0 -35 5
-35 10 0 6 16 10 35 10 19 0 35 -4 35 -10z m2520 4 c0 -32 -241 -296 -261
-284 -8 6 27 50 117 149 117 127 144 153 144 135z m-2705 -14 c-3 -5 -1 -10 6
-10 7 0 10 -3 6 -6 -9 -9 -28 6 -22 17 4 5 8 9 11 9 3 0 2 -4 -1 -10z m-20
-20 c3 -5 -1 -10 -10 -10 -9 0 -13 5 -10 10 3 6 8 10 10 10 2 0 7 -4 10 -10z
m-148 -16 c-3 -3 -12 -4 -19 -1 -8 3 -5 6 6 6 11 1 17 -2 13 -5z m113 2 c0 -2
-9 -6 -20 -9 -11 -3 -18 -1 -14 4 5 9 34 13 34 5z m-67 -13 c-7 -2 -19 -2 -25
0 -7 3 -2 5 12 5 14 0 19 -2 13 -5z m-28 -13 c13 -6 15 -9 5 -9 -8 0 -22 4
-30 9 -18 12 -2 12 25 0z m1225 -55 c13 -14 21 -25 18 -25 -2 0 -15 11 -28 25
-13 14 -21 25 -18 25 2 0 15 -11 28 -25z m-1273 -67 c-3 -8 -6 -5 -6 6 -1 11
2 17 5 13 3 -3 4 -12 1 -19z m881 -15 c-10 -2 -26 -2 -35 0 -10 3 -2 5 17 5
19 0 27 -2 18 -5z m85 0 c-13 -2 -33 -2 -45 0 -13 2 -3 4 22 4 25 0 35 -2 23
-4z m-263 -23 c-14 -4 -32 -8 -40 -9 -13 -1 -13 0 0 9 8 5 26 9 40 9 l25 -1
-25 -8z m-75 -20 c-27 -12 -43 -12 -25 0 8 5 22 9 30 9 10 0 8 -3 -5 -9z m-45
-10 c0 -5 -10 -10 -22 -9 -22 0 -22 1 -3 9 11 5 21 9 23 9 1 1 2 -3 2 -9z
m-173 -87 c-14 -14 -19 -15 -29 -4 -11 10 -10 11 3 6 10 -4 20 -2 24 4 3 6 9
11 13 11 3 0 -1 -8 -11 -17z m-52 -41 c-17 -15 -18 -15 -6 0 7 9 9 23 5 30 -6
10 -4 11 7 0 11 -10 10 -15 -6 -30z m685 -8 c199 -46 359 -190 450 -402 45
-105 59 -166 67 -292 13 -216 -60 -407 -211 -555 -78 -76 -156 -122 -259 -154
-70 -21 -101 -25 -217 -25 -96 0 -154 5 -200 17 -235 62 -430 253 -491 483
-29 106 -31 291 -5 384 95 342 364 558 696 559 61 1 132 -6 170 -15z m-720
-18 c0 -3 -4 -8 -10 -11 -5 -3 -10 -1 -10 4 0 6 5 11 10 11 6 0 10 -2 10 -4z
m-30 -24 c0 -4 -9 -8 -19 -8 -11 0 -17 4 -15 8 3 4 12 8 20 8 8 0 14 -4 14 -8z
m-20 -26 c0 -2 -8 -10 -17 -17 -16 -13 -17 -12 -4 4 13 16 21 21 21 13z m-66
-71 c-26 -34 -42 -47 -28 -22 9 15 46 57 51 57 2 0 -8 -16 -23 -35z m2186 26
c0 -12 -11 -23 -94 -90 -59 -49 -106 -75 -90 -50 3 5 10 7 15 4 5 -4 12 1 15
10 5 12 141 134 152 135 1 0 2 -4 2 -9z m-5060 -81 c11 -6 24 -19 30 -30 11
-20 3 -53 -10 -45 -5 3 -12 0 -16 -6 -5 -8 -3 -9 6 -4 9 5 11 4 6 -3 -11 -18
-43 3 -62 39 -25 50 -2 75 46 49z m2811 -33 c-10 -9 -11 -8 -5 6 3 10 9 15 12
12 3 -3 0 -11 -7 -18z m-2513 -23 c100 -25 231 -96 299 -162 55 -55 95 -123
79 -139 -3 -3 -24 11 -46 31 -23 20 -46 34 -52 30 -6 -4 -8 -3 -5 3 12 19
-155 111 -275 152 -32 11 -58 15 -58 10 0 -5 6 -9 13 -9 7 0 24 -8 37 -17 14
-10 33 -19 43 -20 21 -3 52 -31 44 -39 -2 -3 -60 13 -128 35 -140 47 -150 48
-166 22 -10 -15 -18 -18 -40 -12 -73 19 -19 95 97 135 19 7 86 -2 158 -20z
m-194 -149 c82 -21 221 -82 286 -124 73 -48 156 -134 170 -177 7 -19 10 -37 8
-40 -3 -2 -22 12 -43 32 -21 19 -45 32 -52 30 -8 -3 -11 -2 -8 3 7 13 -103 91
-137 98 -16 3 -28 10 -28 15 0 6 -11 7 -24 4 -18 -4 -29 -1 -38 13 -7 10 -36
26 -63 34 -28 8 -59 18 -70 22 -16 6 -17 5 -5 -4 9 -6 10 -11 3 -11 -6 0 -20
-3 -30 -6 -15 -5 -15 -4 -3 5 13 9 13 11 0 10 -22 -1 -67 -17 -52 -18 6 -1 12
-5 12 -11 0 -6 -9 -6 -26 0 -33 13 -32 14 -27 -14 9 -45 -17 -39 -37 9 -26 60
-25 93 2 122 26 28 76 30 162 8z m5064 -75 c1 -14 -2 -32 -8 -40 -9 -13 -11
-13 -20 0 -5 8 -10 28 -10 43 0 22 4 28 18 25 10 -2 18 -14 20 -28z m-5365
-29 c23 -10 53 -31 67 -46 24 -25 24 -27 7 -40 -23 -17 -53 -8 -137 40 -79 45
-76 41 -60 61 16 18 57 13 123 -15z m1507 -70 c86 -60 173 -100 278 -127 126
-33 131 -39 27 -34 -123 5 -315 107 -392 208 l-28 37 30 -23 c17 -12 55 -40
85 -61z m-705 59 c3 -5 1 -10 -4 -10 -6 0 -11 5 -11 10 0 6 2 10 4 10 3 0 8
-4 11 -10z m-422 -31 c20 -8 37 -17 37 -21 0 -4 -12 -3 -26 2 -14 6 -30 7 -36
4 -7 -5 -8 -2 -3 6 5 9 2 10 -13 6 -12 -4 -33 0 -49 9 l-28 16 40 -5 c22 -2
57 -10 78 -17z m-103 -86 c173 -62 254 -106 326 -178 68 -67 124 -148 124
-178 0 -14 -24 3 -89 64 -49 46 -113 97 -142 112 -38 20 -47 22 -29 8 14 -11
20 -21 14 -21 -6 0 -23 14 -37 30 -15 17 -33 30 -41 30 -7 0 -39 11 -70 25
-32 14 -61 23 -66 20 -4 -3 -10 0 -12 5 -2 6 -10 12 -18 13 -8 2 -19 5 -25 8
-5 3 -23 6 -40 6 -16 0 -22 -1 -12 -4 9 -2 17 -9 17 -14 0 -5 3 -8 8 -7 12 3
81 -35 86 -47 3 -8 -26 -1 -70 16 -42 16 -80 29 -86 29 -22 0 -146 -155 -134
-168 7 -7 42 29 98 99 23 30 26 31 21 10 -4 -15 -2 -22 4 -18 6 4 13 -3 15
-16 6 -33 -36 -94 -77 -111 -20 -9 -38 -22 -41 -31 -3 -8 -10 -15 -16 -15 -5
0 -7 3 -5 8 3 4 -6 15 -19 25 -19 14 -23 15 -18 2 3 -8 10 -15 14 -15 4 0 8
-12 8 -27 l0 -27 -24 28 c-19 21 -24 39 -24 83 0 80 21 117 119 207 12 11 21
26 21 34 0 8 9 27 21 43 25 35 25 35 199 -28z m105 -163 c15 -6 23 -15 19 -21
-4 -7 -9 -7 -13 -2 -3 5 -15 15 -26 21 -25 14 -15 15 20 2z m-234 -57 c-11
-22 -27 -45 -36 -53 -9 -8 -2 13 17 48 35 65 52 70 19 5z m364 21 c13 -6 14
-9 3 -16 -9 -7 -6 -8 10 -5 13 3 22 3 19 0 -3 -3 12 -19 35 -37 22 -17 46 -46
54 -63 13 -33 13 -33 -10 -18 -22 15 -70 65 -71 75 0 3 -5 4 -12 4 -6 -1 -9 4
-7 11 3 7 -5 15 -19 19 -13 3 -24 12 -24 21 0 17 0 17 22 9z m-225 -52 c0 -25
-19 -42 -47 -42 -27 0 -28 3 -7 35 19 29 54 34 54 7z m171 -79 c16 -10 29 -25
29 -35 0 -9 -31 -97 -69 -195 -64 -168 -117 -320 -157 -458 -9 -33 -21 -65
-26 -71 -4 -6 -10 -24 -12 -40 -2 -16 -6 -36 -9 -44 -3 -8 -10 -31 -15 -50 -7
-29 -14 -36 -45 -44 -20 -5 -39 -7 -42 -4 -7 6 84 336 141 513 41 127 164 445
172 445 2 0 17 -8 33 -17z m4923 -187 c-9 -35 -34 -22 -34 18 0 18 3 36 7 39
12 13 34 -32 27 -57z m-2137 -286 c87 -61 161 -94 267 -121 70 -18 101 -20
236 -16 165 5 232 18 330 64 30 14 80 36 110 49 l55 24 -35 -30 c-51 -45 -174
-105 -275 -136 -76 -23 -110 -27 -215 -28 -186 -1 -299 35 -454 147 -75 54
-86 64 -126 111 l-25 30 30 -22 c17 -13 62 -45 102 -72z m-2537 66 c0 -3 -4
-8 -10 -11 -5 -3 -10 -1 -10 4 0 6 5 11 10 11 6 0 10 -2 10 -4z m-23 -65 c-10
-12 -9 -14 6 -8 17 6 17 5 -2 -19 -27 -34 -104 -249 -124 -349 -2 -5 -5 -14
-9 -20 -3 -5 -9 -31 -13 -57 -7 -45 -25 -63 -40 -38 -8 13 33 149 88 295 73
191 92 234 99 222 4 -6 1 -18 -5 -26z m43 19 c0 -5 -5 -10 -11 -10 -5 0 -7 5
-4 10 3 6 8 10 11 10 2 0 4 -4 4 -10z m1520 -16 c98 -23 167 -61 247 -137 99
-94 162 -191 209 -320 l13 -38 -57 49 c-222 192 -545 328 -819 347 -57 4 -103
10 -103 14 0 7 106 53 160 70 104 32 253 38 350 15z m-3746 -211 c10 -56 73
-342 104 -471 28 -122 27 -131 -25 -132 -12 0 -34 -5 -49 -10 -15 -6 -29 -8
-32 -6 -5 5 -39 151 -67 286 -7 36 -27 127 -45 203 -17 77 -30 141 -27 143 5
6 84 21 113 23 18 1 23 -6 28 -36z m5598 -460 c-1 -169 -5 -309 -7 -312 -16
-15 -20 38 -23 279 -3 221 -1 274 12 304 8 20 16 36 18 36 2 0 2 -138 0 -307z
m-590 217 c39 -83 66 -364 78 -836 17 -653 10 -1651 -11 -1559 -4 19 -8 -4 -9
-65 l-3 -95 -7 90 c-4 50 -10 450 -14 890 -9 1086 -22 1330 -80 1533 -8 30
-12 60 -9 68 9 24 37 11 55 -26z m-3156 -174 c-4 -19 -15 -61 -26 -93 -20 -63
-98 -370 -125 -495 l-16 -78 -74 0 c-41 0 -97 -5 -125 -11 -28 -6 -53 -9 -55
-7 -9 9 90 499 132 650 18 66 11 64 187 66 l108 2 -6 -34z m166 -12 c438 -138
829 -387 1223 -779 170 -168 266 -278 381 -435 71 -97 244 -367 244 -381 0
-13 -15 -20 -312 -140 -260 -106 -288 -115 -300 -100 -8 9 -31 43 -52 76 -257
400 -628 737 -1033 940 -124 61 -318 135 -396 149 -29 6 -37 11 -33 24 2 9 16
73 30 142 22 103 70 297 91 360 3 8 15 50 27 93 12 45 27 77 34 77 7 0 50 -12
96 -26z m1171 -35 c7 -26 -10 -72 -23 -64 -11 7 -14 68 -3 78 12 12 21 7 26
-14z m-2380 -184 c20 -79 19 -114 -3 -126 -109 -56 -247 -82 -530 -99 -236
-15 -369 -43 -620 -131 -19 -7 -50 -19 -67 -28 -21 -10 -36 -12 -42 -6 -11 11
-46 173 -39 180 4 4 239 62 448 111 286 66 379 87 540 120 96 20 191 40 210
44 75 17 83 12 103 -65z m-330 -682 c37 -153 68 -287 67 -299 0 -12 -9 -31
-20 -44 -27 -31 -25 -40 9 -40 60 0 46 -86 -32 -201 -48 -71 -106 -188 -96
-194 11 -7 89 35 109 59 22 27 43 17 99 -45 60 -68 77 -111 116 -299 21 -104
36 -210 30 -210 -1 0 -14 18 -29 40 -26 39 -79 76 -95 66 -37 -23 6 -165 64
-214 28 -23 34 -35 38 -83 l5 -56 -44 43 c-56 57 -84 58 -134 5 l-37 -39 -16
51 c-9 28 -15 53 -12 55 2 2 7 -7 10 -21 5 -20 11 -24 23 -18 10 5 29 14 45
20 35 14 35 38 -2 88 -57 78 -125 109 -134 61 -7 -40 -92 154 -115 262 -11 52
-40 184 -63 293 -35 161 -41 201 -31 215 29 39 82 158 82 183 0 14 -5 41 -11
58 l-12 33 -28 -53 c-16 -29 -29 -57 -30 -63 0 -6 -8 -29 -18 -51 l-18 -40
-18 80 c-10 44 -20 85 -21 90 -10 39 -16 60 -34 140 -11 50 -33 149 -48 221
l-29 131 61 13 c62 12 230 36 276 39 25 1 26 -4 93 -276z m3713 221 c17 -40
32 -245 17 -229 -5 6 -15 39 -22 75 -7 36 -19 84 -27 108 -8 23 -14 52 -14 62
0 33 30 23 46 -16z m-70 -59 c16 -40 19 -115 3 -115 -14 0 -37 57 -42 108 -7
54 17 58 39 7z m-2612 -73 c-17 -14 -25 -43 -43 -159 -20 -126 -23 -184 -24
-513 -1 -203 -5 -370 -9 -370 -25 0 -37 115 -44 415 -7 269 7 599 26 619 5 5
26 12 47 16 63 13 70 11 47 -8z m259 11 c3 -5 -2 -32 -9 -61 -8 -30 -11 -58
-8 -64 4 -6 2 -13 -4 -17 -6 -3 -20 -69 -32 -146 -24 -155 -28 -188 -70 -559
-16 -142 -32 -261 -35 -264 -12 -13 -3 260 15 444 24 234 42 367 76 541 13 70
24 128 24 130 0 7 39 2 43 -4z m4289 -380 c22 -49 52 -115 68 -148 55 -122
142 -359 185 -511 25 -85 45 -157 45 -160 0 -6 -99 -5 -142 2 -22 4 -35 11
-32 18 5 14 -48 172 -104 306 -42 102 -90 200 -171 349 -55 101 -61 129 -33
153 14 13 128 76 140 78 2 0 21 -39 44 -87z m1186 -541 c12 -8 23 -17 23 -21
10 -52 6 -64 -29 -99 -41 -41 -139 -92 -177 -92 -33 0 -40 29 -21 93 16 55 34
77 100 121 41 27 60 27 104 -2z m-3276 -72 l38 -75 0 -266 0 -265 -147 -37
c-82 -20 -179 -43 -218 -52 -38 -9 -77 -18 -86 -21 -13 -3 -19 7 -28 43 -7 26
-16 52 -20 58 -4 5 -23 53 -41 105 -18 52 -57 150 -86 217 -30 67 -54 126 -54
130 0 5 48 26 108 47 151 55 394 152 439 176 21 11 42 19 48 17 5 -1 27 -36
47 -77z m-3805 -111 c-10 -6 -64 -21 -120 -34 -131 -30 -445 -137 -495 -168
-21 -14 -53 -41 -71 -62 -26 -30 -31 -43 -26 -64 22 -89 177 -151 550 -221 36
-7 34 -8 -25 -9 -164 -2 -393 42 -492 96 -129 70 -151 168 -57 248 35 29 180
101 221 109 13 2 42 11 65 20 52 18 336 78 380 80 17 1 35 4 39 9 4 4 17 7 28
7 20 -1 20 -1 3 -11z m5823 -84 c0 -3 -6 -14 -12 -25 -19 -31 5 -43 67 -33
191 30 507 -25 544 -95 12 -23 4 -59 -14 -66 -23 -8 -294 13 -430 34 -71 11
-133 20 -136 20 -14 0 -50 40 -45 48 3 6 -1 13 -10 16 -11 4 -14 13 -10 31 7
28 -5 33 -24 10 -7 -8 -16 -12 -21 -10 -4 3 -12 -3 -18 -12 -16 -28 -13 -5 4
27 18 35 52 60 82 60 13 0 23 -2 23 -5z m2131 -89 c71 -36 108 -69 120 -108
33 -117 -98 -202 -392 -252 -83 -15 -333 -25 -343 -15 -3 3 59 15 137 28 359
58 517 126 517 223 0 13 -28 49 -75 94 -81 79 -75 84 36 30z m-407 14 c14 -5
34 -18 46 -30 22 -22 27 -56 8 -57 -18 -1 -173 -41 -225 -58 -23 -8 -67 -17
-97 -20 -51 -4 -56 -3 -56 15 0 22 57 68 135 107 100 51 143 61 189 43z m31
-120 c-11 -5 -27 -9 -35 -9 -9 0 -8 4 5 9 11 5 27 9 35 9 9 0 8 -4 -5 -9z
m-102 -27 c-7 -2 -19 -2 -25 0 -7 3 -2 5 12 5 14 0 19 -2 13 -5z m-46 -9 c-3
-3 -12 -4 -19 -1 -8 3 -5 6 6 6 11 1 17 -2 13 -5z m-1264 -34 c48 -12 100 -28
115 -36 33 -17 135 -18 211 -3 53 11 60 10 138 -21 106 -42 207 -101 211 -123
6 -28 -38 -21 -134 24 -85 40 -127 50 -142 35 -9 -9 20 -26 32 -19 5 3 6 1 2
-5 -5 -9 -13 -9 -29 0 -14 8 -75 13 -167 15 -180 2 -181 2 -202 21 -10 8 -18
12 -18 8 0 -8 33 -49 130 -165 95 -113 140 -176 140 -199 0 -27 -15 -35 -30
-17 -14 17 -35 20 -24 4 10 -17 -35 -1 -72 24 -38 27 -107 106 -149 172 -18
28 -41 58 -51 67 -25 22 -74 41 -74 28 0 -6 -9 -10 -21 -10 -11 0 -53 -16 -92
-35 -40 -19 -63 -28 -52 -19 22 17 109 65 140 76 12 5 5 6 -19 3 -21 -2 -46
-11 -56 -20 -9 -8 -24 -15 -33 -15 -8 0 -22 -6 -29 -13 -21 -20 -95 -50 -107
-43 -17 11 -13 62 8 114 11 26 22 58 25 72 3 14 12 34 21 45 l15 20 -6 -20
c-5 -13 4 -8 24 15 17 19 31 38 32 42 0 15 176 0 263 -22z m-1246 -32 c-3 -8
-6 -5 -6 6 -1 11 2 17 5 13 3 -3 4 -12 1 -19z m6 -162 c3 -33 2 -44 -4 -34
-13 23 -23 118 -11 98 5 -8 12 -37 15 -64z m1702 34 c3 -5 -1 -10 -10 -10 -9
0 -13 5 -10 10 3 6 8 10 10 10 2 0 7 -4 10 -10z m-2647 -200 c-3 -80 -9 -112
-23 -133 -22 -34 -64 -57 -105 -57 l-31 0 34 43 c53 64 77 119 96 211 21 111
34 82 29 -64z m-3911 -121 c-11 -29 -10 -33 22 -59 50 -42 249 -101 406 -120
44 -5 98 -12 120 -15 22 -3 110 -10 195 -16 306 -21 306 -28 0 -24 -308 4
-450 17 -604 56 -131 33 -225 92 -226 140 0 25 46 69 74 69 23 0 24 -2 13 -31z
m7095 -26 c54 -29 128 -104 128 -128 0 -34 -39 -91 -79 -113 -159 -90 -494
-143 -880 -141 -230 2 -239 0 174 45 435 48 642 103 681 183 18 36 0 64 -85
133 l-76 61 44 -7 c25 -4 67 -19 93 -33z m-2156 -53 c82 -42 178 -112 182
-134 5 -24 -25 -55 -48 -49 -10 3 -28 -1 -40 -7 -16 -9 -25 -9 -33 -1 -6 6
-25 11 -41 11 -17 0 -49 9 -71 19 l-40 19 46 -1 c26 -1 45 -5 43 -9 -5 -8 18
-15 71 -22 22 -3 31 -3 21 0 -15 5 -16 8 -5 15 18 11 -94 62 -138 63 -18 0
-28 3 -22 7 6 3 -9 14 -32 23 -41 17 -44 17 -56 0 -12 -17 -13 -17 -13 0 0 15
-3 16 -15 6 -13 -11 -14 -10 -9 6 10 28 26 45 59 66 42 25 73 23 141 -12z
m-136 -70 c0 -5 -2 -10 -4 -10 -3 0 -8 5 -11 10 -3 6 -1 10 4 10 6 0 11 -4 11
-10z m-1658 -223 c81 -40 122 -78 114 -105 -7 -20 -38 -33 -35 -14 3 19 -2 33
-10 28 -12 -8 -261 51 -278 65 -9 9 -20 7 -40 -6 l-28 -18 20 24 c50 59 52 60
137 55 47 -2 83 -11 120 -29z m-808 -62 c-3 -19 -3 -46 0 -60 9 -36 78 -81
166 -109 81 -26 296 -70 390 -81 30 -3 87 -10 125 -15 205 -28 846 -50 1285
-44 553 7 923 73 975 174 19 36 30 38 50 6 63 -96 -155 -176 -580 -212 -362
-31 -1151 -28 -1515 6 -58 5 -172 14 -255 20 -512 38 -821 181 -679 316 20 19
39 34 41 34 2 0 1 -16 -3 -35z m590 -3 c3 -5 -1 -9 -9 -9 -8 0 -12 4 -9 9 3 4
7 8 9 8 2 0 6 -4 9 -8z m1158 -16 c43 -29 52 -59 27 -88 -15 -17 -19 -18 -15
-5 4 13 0 17 -22 17 -15 0 -34 -5 -42 -10 -11 -8 -8 -9 13 -4 21 5 27 3 27
-10 0 -11 -10 -16 -30 -17 -16 -1 -42 -3 -57 -5 -110 -12 -187 -15 -173 -5 12
8 8 10 -15 5 -45 -8 -72 16 -60 52 14 39 51 62 125 78 95 21 185 18 222 -8z
m-1122 4 c0 -5 -5 -10 -11 -10 -5 0 -7 5 -4 10 3 6 8 10 11 10 2 0 4 -4 4 -10z
m127 -18 c75 -18 103 -32 62 -32 -31 1 -166 33 -175 43 -12 12 37 7 113 -11z"/>
<path d="M6817 7909 c4 -13 8 -18 11 -10 2 7 -1 18 -6 23 -8 8 -9 4 -5 -13z"/>
<path d="M6295 7600 c3 -5 8 -10 11 -10 2 0 4 5 4 10 0 6 -5 10 -11 10 -5 0
-7 -4 -4 -10z"/>
<path d="M4386 6822 c-3 -5 1 -16 10 -23 52 -43 54 -136 4 -184 -69 -66 -178
-46 -220 41 -12 25 -20 54 -17 64 8 30 -7 24 -46 -19 -82 -90 -117 -183 -117
-310 0 -160 50 -255 171 -328 168 -100 408 -77 534 52 201 207 150 546 -101
673 -48 25 -78 32 -155 39 -33 3 -59 1 -63 -5z m-193 -524 c23 -27 22 -57 -5
-85 -27 -28 -48 -29 -82 -2 -33 26 -34 62 -1 95 29 29 58 26 88 -8z m332 -97
c3 -16 15 -37 26 -47 23 -20 25 -34 4 -34 -8 0 -29 -16 -46 -35 -38 -42 -45
-43 -53 -9 -4 14 -20 33 -36 42 -37 21 -37 26 -4 49 14 10 40 30 57 45 36 30
43 29 52 -11z"/>
<path d="M5971 6073 c53 -56 61 -99 32 -160 -40 -84 -161 -98 -224 -27 -9 11
-26 36 -37 57 l-21 39 -36 -55 c-55 -83 -86 -186 -86 -283 1 -164 40 -248 148
-320 92 -62 178 -88 293 -88 130 -1 195 21 270 90 97 91 142 199 141 345 -1
193 -110 351 -283 410 -28 9 -87 17 -136 18 l-87 2 26 -28z m-167 -534 c63
-49 -2 -149 -69 -105 -39 26 -48 51 -31 85 24 46 58 53 100 20z m336 -84 c0
-8 14 -30 30 -48 33 -38 36 -47 18 -47 -7 0 -29 -18 -49 -41 l-36 -42 -19 22
c-10 12 -31 35 -46 50 l-26 28 54 42 c30 23 54 47 54 52 0 6 5 7 10 4 6 -3 10
-13 10 -20z"/>
<path d="M2735 6080 c3 -5 14 -10 23 -10 15 0 15 2 2 10 -20 13 -33 13 -25 0z"/>
<path d="M2562 5907 c6 -8 23 -11 37 -9 23 5 24 6 6 13 -11 4 -28 8 -38 8 -14
1 -15 -2 -5 -12z"/>
<path d="M2787 5839 c7 -7 15 -10 18 -7 3 3 -2 9 -12 12 -14 6 -15 5 -6 -5z"/>
<path d="M2658 5843 c7 -3 16 -2 19 1 4 3 -2 6 -13 5 -11 0 -14 -3 -6 -6z"/>
<path d="M1190 3227 c0 -18 7 -57 15 -85 17 -56 45 -70 65 -33 20 39 12 81
-24 117 -43 43 -56 43 -56 1z"/>
<path d="M1136 2952 c-31 -45 -33 -68 -7 -81 26 -14 71 21 71 55 0 28 -16 64
-29 64 -5 0 -20 -17 -35 -38z"/>
<path d="M1282 2931 c-17 -11 -21 -72 -5 -78 10 -4 53 63 53 82 0 8 -33 6 -48
-4z"/>
<path d="M1444 2546 c-10 -26 1 -51 21 -51 23 0 32 30 15 50 -16 19 -29 19
-36 1z"/>
<path d="M8040 2465 c-7 -9 -19 -14 -27 -11 -8 3 -12 2 -9 -3 3 -4 -6 -13 -20
-20 -20 -9 -28 -8 -40 4 -14 13 -18 13 -38 -2 -31 -23 -23 -45 13 -36 38 9
115 49 130 67 8 9 11 16 8 16 -2 0 -10 -7 -17 -15z m-115 -44 c-3 -6 -11 -11
-16 -11 -5 0 -4 6 3 14 14 16 24 13 13 -3z"/>
<path d="M7548 1953 c7 -3 16 -2 19 1 4 3 -2 6 -13 5 -11 0 -14 -3 -6 -6z"/>
<path d="M7348 1933 c7 -3 16 -2 19 1 4 3 -2 6 -13 5 -11 0 -14 -3 -6 -6z"/>
<path d="M7380 1626 c0 -2 8 -10 18 -17 15 -13 16 -12 3 4 -13 16 -21 21 -21
13z"/>
<path d="M4860 1061 c-8 -6 -18 -7 -22 -5 -4 3 -8 -5 -8 -16 0 -16 4 -20 16
-16 9 3 18 6 20 6 3 0 2 5 -1 10 -3 6 1 10 9 10 9 0 16 5 16 10 0 12 -10 13
-30 1z"/>
<path d="M4968 1033 c7 -3 16 -2 19 1 4 3 -2 6 -13 5 -11 0 -14 -3 -6 -6z"/>
</g>
</svg>
